{"glyphs":{":":{"x_min":0,"x_max":323,"ha":323,"o":"m 37 112 q 37 162 74 198 q 110 235 162 235 q 214 235 250 198 q 287 162 287 110 q 287 58 250 22 q 214 -14 162 -14 q 109 -14 73 22 q 37 59 37 112 z m 36 395 q 36 446 73 482 q 110 518 161 518 q 213 518 250 482 q 286 445 286 393 q 286 341 249 305 q 212 269 161 269 q 109 269 72 306 q 36 342 36 395 z"},"$":{"x_min":0,"x_max":617,"ha":617,"o":"m 11 68 l 81 281 q 95 268 103 262 q 111 256 141 236 q 200 202 224 197 q 249 192 266 192 q 293 192 305 204 q 317 215 317 229 q 317 245 303 253 q 297 257 287 260 q 277 263 257 267 l 237 272 l 211 279 l 190 285 q 32 333 32 470 q 32 500 39 528 q 50 576 80 615 q 118 666 154 690 q 191 714 223 714 q 229 714 241 712 l 241 789 l 380 789 l 380 720 q 423 720 458 710 q 493 701 544 674 l 567 660 l 509 473 l 489 486 q 448 512 414 524 q 381 535 355 535 q 323 535 309 519 q 300 508 300 498 q 300 484 314 478 q 326 471 355 464 l 397 452 l 409 449 l 431 443 l 455 436 q 520 416 557 368 q 594 320 594 254 q 594 222 583 183 q 581 173 576 160 q 570 147 565 136 q 540 86 500 54 q 460 21 393 -2 l 374 -8 l 374 -72 l 236 -72 l 237 -16 l 203 -10 q 145 2 101 20 q 57 38 11 68 z"},"?":{"x_min":0,"x_max":498,"ha":498,"o":"m 97 112 q 97 164 134 200 q 170 235 221 235 q 272 235 309 199 q 346 163 346 111 q 346 59 310 22 q 273 -14 221 -14 q 169 -14 133 23 q 97 60 97 112 z m -7 671 l 20 685 q 75 710 128 722 q 182 735 230 735 q 304 735 360 710 q 415 684 444 640 q 477 589 477 530 q 477 512 472 490 q 463 452 447 428 q 431 404 395 375 l 376 361 l 366 353 l 350 339 q 326 312 322 284 l 320 273 l 130 273 l 131 291 q 136 337 146 359 q 155 381 185 412 l 207 434 l 214 442 q 224 451 239 473 q 249 489 249 506 q 249 539 213 550 q 197 554 187 554 q 166 554 136 542 q 106 531 68 507 l 54 497 z"},"'":{"x_min":0,"x_max":224,"ha":224,"o":"m 29 468 l 51 720 l 195 720 l 173 468 z"},"a":{"x_min":0,"x_max":670,"ha":670,"o":"m 403 457 l 403 504 l 634 504 l 634 0 l 403 0 l 403 52 q 378 21 339 4 q 300 -13 249 -13 q 154 -13 94 52 q 29 122 29 244 q 29 366 93 442 q 157 518 251 518 q 272 518 298 513 q 324 508 353 493 q 382 478 403 457 z m 323 189 q 327 188 330 188 q 333 188 334 188 q 357 188 372 208 q 388 227 388 262 q 388 290 376 306 q 365 323 344 328 q 340 329 333 329 q 286 329 278 269 l 278 256 q 278 227 290 210 q 301 192 323 189 z"},"L":{"x_min":0,"x_max":565,"ha":565,"o":"m 36 0 l 36 720 l 302 720 l 302 207 l 579 207 l 521 0 z"},"3":{"x_min":0,"x_max":740,"ha":740,"o":"m 39 269 l 294 269 l 294 255 q 298 221 318 202 q 338 184 369 184 q 395 184 413 200 q 431 216 434 242 q 436 267 422 286 q 407 305 379 312 q 367 315 356 315 q 349 315 337 313 l 337 462 l 350 461 q 389 461 403 485 q 411 497 411 511 q 411 529 397 542 q 383 556 365 556 q 358 556 349 553 q 324 544 314 515 l 312 509 l 311 504 l 70 504 q 70 525 74 545 q 79 565 89 589 q 116 650 172 687 q 227 724 315 735 q 341 738 366 738 q 379 738 392 736 q 405 735 419 734 q 462 729 496 718 q 531 708 559 692 q 609 664 636 620 q 663 577 663 531 q 663 465 615 424 l 608 418 l 598 411 l 587 404 l 577 398 q 616 386 647 355 q 694 306 694 228 q 694 209 689 182 q 673 107 608 56 q 543 4 434 -11 q 420 -13 408 -14 q 396 -15 379 -15 q 347 -15 315 -9 q 180 12 109 80 q 38 149 38 247 q 38 261 39 269 z"},";":{"x_min":0,"x_max":325,"ha":325,"o":"m 38 -116 l 64 -90 q 101 -52 127 -8 l 108 -1 q 38 33 38 109 q 38 163 74 199 q 110 235 160 235 q 212 235 248 199 q 290 157 290 98 q 290 50 261 -6 q 229 -67 167 -134 l 136 -166 z m 36 393 q 36 445 73 482 q 110 519 161 519 q 213 519 250 482 q 286 444 286 392 q 286 340 250 304 q 213 267 161 267 q 109 267 72 303 q 36 339 36 393 z"},"J":{"x_min":0,"x_max":524,"ha":524,"o":"m -14 99 l 91 264 q 101 251 116 239 q 132 227 142 222 q 151 217 158 216 q 162 215 165 215 q 168 215 169 215 q 220 215 220 270 l 221 290 l 221 301 l 221 720 l 488 720 l 488 235 l 486 164 q 486 89 418 38 q 351 -14 253 -14 q 215 -14 181 -7 q 147 0 108 18 q 86 28 66 39 q 47 50 27 65 q 17 73 6 81 q 2 84 -14 99 z"},"V":{"x_min":0,"x_max":708,"ha":708,"o":"m -29 720 l 241 720 l 339 373 q 343 357 344 352 q 352 312 352 260 l 354 226 l 360 303 q 362 323 364 342 q 366 362 370 373 l 467 720 l 737 720 l 468 0 l 240 0 z"},"\"":{"x_min":0,"x_max":426,"ha":426,"o":"m 29 468 l 51 720 l 195 720 l 173 468 z m 231 468 l 253 720 l 397 720 l 375 468 z"},"7":{"x_min":0,"x_max":740,"ha":740,"o":"m 19 504 l 86 720 l 735 720 l 341 0 l 44 0 l 330 469 q 342 491 380 522 l 399 536 q 375 524 351 516 q 327 508 318 506 q 310 504 304 504 z"},"S":{"x_min":0,"x_max":617,"ha":617,"o":"m 11 68 l 81 281 q 95 268 103 262 q 111 256 141 236 q 200 202 224 197 q 249 192 266 192 q 293 192 305 204 q 317 215 317 229 q 317 245 303 253 q 297 257 287 260 q 277 263 257 267 l 237 272 l 211 279 l 190 285 q 114 309 72 360 q 30 411 30 477 q 30 513 43 550 q 56 586 84 623 q 123 673 186 702 q 248 730 327 730 q 365 730 401 724 q 437 718 482 702 q 526 687 567 660 l 509 473 l 489 486 q 448 512 414 524 q 381 535 355 535 q 323 535 309 519 q 300 508 300 498 q 300 484 314 478 q 326 471 355 464 l 397 452 l 409 449 l 431 443 l 455 436 q 520 416 557 368 q 594 320 594 254 q 594 221 583 182 q 558 93 477 38 q 396 -18 285 -18 q 207 -18 121 13 q 63 34 11 68 z"},"}":{"x_min":0,"x_max":367,"ha":367,"o":"m 29 -122 l 29 -36 l 42 -36 q 72 -36 85 -25 q 98 -14 98 12 l 98 266 q 98 295 115 318 q 132 342 161 354 l 187 360 l 161 366 q 132 378 115 402 q 98 425 98 454 l 98 708 q 98 734 86 745 q 74 756 42 756 l 29 756 l 29 842 l 172 842 q 219 842 245 816 q 271 790 271 742 l 271 432 q 271 401 290 380 q 310 360 338 360 q 310 360 290 340 q 271 319 271 288 l 271 -22 q 271 -70 245 -96 q 219 -122 172 -122 z"},"Z":{"x_min":0,"x_max":719,"ha":719,"o":"m -11 0 l 286 473 q 289 479 300 491 q 312 503 332 520 l 348 533 l 330 524 q 312 516 295 510 q 278 504 264 504 l -3 504 l 60 720 l 726 720 l 441 262 l 414 228 l 382 198 l 397 203 q 407 206 428 211 q 448 216 457 216 l 723 216 l 656 0 z"},"x":{"x_min":0,"x_max":647,"ha":647,"o":"m -22 0 l 169 261 l -3 504 l 275 504 l 305 445 q 317 422 322 394 l 323 377 l 329 411 q 333 430 341 445 l 371 504 l 650 504 l 478 261 l 669 0 l 378 0 l 343 67 q 331 89 325 129 l 323 143 l 322 129 q 315 89 304 67 l 269 0 z"},")":{"x_min":0,"x_max":376,"ha":376,"o":"m 0 4 q 19 22 37 43 q 55 64 71 88 q 157 214 157 360 q 157 504 71 632 q 42 676 0 716 l 107 840 q 218 754 279 628 q 340 503 340 360 q 340 218 279 92 q 218 -34 107 -120 z"},"&":{"x_min":0,"x_max":885,"ha":885,"o":"m 204 406 l 197 412 l 192 417 l 175 438 q 144 481 144 533 q 144 588 178 636 q 212 683 278 709 q 318 725 348 728 q 378 732 390 732 q 403 732 410 732 q 512 732 582 685 q 653 638 669 570 q 675 546 675 523 q 675 435 576 372 q 563 365 555 360 q 547 356 534 352 q 557 321 590 292 q 640 325 680 367 l 706 395 l 840 247 l 814 220 q 797 203 774 185 q 750 167 727 152 q 801 75 899 0 l 590 0 l 543 43 l 523 33 q 418 -15 317 -15 q 244 -15 184 8 q 125 32 85 76 q 29 138 29 213 q 29 259 54 302 q 78 344 124 372 l 155 388 q 179 399 204 406 z m 422 481 l 433 489 q 463 513 463 539 q 463 551 456 561 q 446 577 428 580 q 396 586 381 555 q 377 543 377 539 q 377 524 392 504 l 399 496 l 404 490 l 411 484 l 418 477 z m 312 276 l 304 270 q 280 253 280 228 q 280 221 281 217 q 291 170 350 170 q 363 170 380 174 q 397 179 404 183 l 315 279 z"},"_":{"x_min":0,"x_max":418,"ha":418,"o":"m 29 -43 l 29 0 l 389 0 l 389 -43 z"},"v":{"x_min":0,"x_max":596,"ha":596,"o":"m -29 504 l 233 504 l 280 314 q 297 248 297 200 q 298 215 300 230 q 302 244 305 261 l 316 314 l 363 504 l 625 504 l 423 0 l 173 0 z"},"O":{"x_min":0,"x_max":854,"ha":854,"o":"m 29 360 q 29 521 140 628 q 252 736 427 736 q 510 736 588 707 q 697 667 762 572 q 826 477 826 360 q 826 284 796 213 q 766 142 712 90 q 659 39 588 13 q 502 -18 419 -18 q 256 -18 142 90 q 29 199 29 360 z m 372 235 q 399 223 428 223 q 470 223 504 246 q 539 270 554 309 q 563 333 563 360 q 563 403 542 436 q 521 469 483 485 q 454 497 426 497 q 385 497 350 474 q 316 450 301 411 q 291 388 291 360 q 291 318 313 284 q 335 251 372 235 z"},"(":{"x_min":0,"x_max":375,"ha":375,"o":"m 260 840 l 375 714 q 302 645 262 552 q 222 460 222 359 q 222 257 261 166 q 300 75 375 5 l 260 -121 q 152 -31 94 94 q 36 220 36 359 q 36 424 49 485 q 92 700 260 840 z"},"C":{"x_min":0,"x_max":647,"ha":647,"o":"m 643 666 l 563 443 l 548 454 q 511 478 477 489 q 464 493 452 495 q 441 497 428 497 q 370 497 330 458 q 290 419 290 362 q 290 322 314 287 q 356 231 422 231 q 476 231 547 271 l 563 280 l 642 53 l 617 38 q 523 -15 419 -15 q 385 -15 349 -9 q 205 16 116 119 q 28 222 28 361 q 28 402 37 444 q 60 556 146 636 q 233 715 356 734 q 385 738 397 738 q 409 739 416 739 q 513 739 620 679 z"},"W":{"x_min":0,"x_max":1058,"ha":1058,"o":"m -14 720 l 239 720 l 312 406 q 314 398 317 364 q 320 331 324 298 l 327 262 l 330 297 q 330 347 335 378 q 341 403 342 407 l 421 720 l 637 720 l 717 407 q 722 384 725 355 q 728 326 728 297 l 731 262 q 731 283 734 308 q 737 333 738 347 l 747 406 l 820 720 l 1072 720 l 846 0 l 614 0 l 550 302 q 546 319 542 346 q 539 373 535 415 l 530 471 l 528 498 l 527 471 q 527 422 524 389 q 520 356 508 302 l 444 0 l 212 0 z"},"A":{"x_min":0,"x_max":731,"ha":731,"o":"m -29 0 l 227 720 l 504 720 l 760 0 l 472 0 l 452 92 l 279 92 l 258 0 z m 421 274 l 382 446 l 373 487 l 367 535 q 367 516 364 506 q 362 496 360 486 l 350 446 l 311 274 z"},"f":{"x_min":0,"x_max":390,"ha":390,"o":"m -29 317 l 22 504 l 73 504 l 73 551 q 73 568 74 576 q 75 584 81 602 q 101 669 154 705 q 207 741 291 741 q 346 741 405 727 l 433 720 l 385 541 q 375 548 359 551 l 352 552 l 347 552 l 341 551 q 316 545 316 525 l 316 504 l 418 504 l 368 317 l 317 317 l 317 0 l 73 0 l 73 317 z"},"Q":{"x_min":0,"x_max":854,"ha":854,"o":"m 742 117 l 823 -1 l 649 -128 l 557 3 q 547 0 530 -4 q 512 -9 496 -12 q 480 -14 462 -15 q 444 -16 423 -16 q 253 -16 141 91 q 29 198 29 360 q 29 521 140 628 q 252 736 427 736 q 556 736 654 676 q 751 615 794 511 q 826 435 826 355 q 826 295 808 238 q 790 182 756 135 l 750 127 z m 372 235 q 399 223 428 223 q 470 223 504 246 q 539 270 554 309 q 563 333 563 360 q 563 403 542 436 q 521 469 483 485 q 454 497 426 497 q 385 497 350 474 q 316 450 301 411 q 291 388 291 360 q 291 318 313 284 q 335 251 372 235 z"},"w":{"x_min":0,"x_max":857,"ha":857,"o":"m -22 504 l 223 504 l 271 319 q 277 301 281 265 l 284 235 l 286 217 l 292 266 q 296 299 301 319 l 345 504 l 521 504 l 556 319 l 563 280 l 565 266 l 572 217 l 574 241 l 577 265 l 584 319 l 634 504 l 879 504 l 695 0 l 475 0 l 443 148 l 442 151 l 435 212 l 432 247 l 429 272 l 424 212 q 417 160 414 148 l 378 0 l 162 0 z"},"-":{"x_min":0,"x_max":330,"ha":330,"o":"m 22 193 l 22 353 l 308 353 l 308 193 z"},"E":{"x_min":0,"x_max":585,"ha":585,"o":"m 36 0 l 36 720 l 580 720 l 525 518 l 302 518 l 302 458 l 503 458 l 503 264 l 302 264 l 302 202 l 581 202 l 523 0 z"},"s":{"x_min":0,"x_max":512,"ha":512,"o":"m 4 34 l 57 197 q 75 184 94 173 q 112 162 133 154 q 171 139 198 139 q 215 139 224 145 q 234 151 235 160 q 238 180 216 184 l 198 187 l 190 188 l 179 190 l 160 194 l 128 202 q 79 216 51 253 q 23 290 23 339 q 23 380 45 420 q 72 470 130 497 q 187 524 273 524 q 284 524 295 524 q 306 524 321 522 q 386 516 452 488 l 471 479 l 422 329 l 403 339 q 367 358 341 367 q 315 376 300 376 q 265 376 265 352 q 265 349 267 343 q 273 330 289 326 l 305 322 l 315 320 l 331 317 l 349 314 l 381 305 l 403 297 q 443 280 466 244 q 490 207 490 163 q 490 99 444 47 q 415 14 366 -4 q 317 -23 248 -23 q 221 -23 191 -20 q 89 -9 4 34 z"},"l":{"x_min":0,"x_max":317,"ha":317,"o":"m 36 0 l 36 609 l 281 746 l 281 0 z"},"8":{"x_min":0,"x_max":739,"ha":739,"o":"m 172 374 q 123 384 92 424 q 62 465 62 517 q 62 568 94 616 q 126 663 179 692 q 232 720 317 729 q 344 732 370 732 q 396 732 422 729 q 506 720 560 692 q 613 663 647 614 q 663 591 670 566 q 677 542 677 516 q 677 464 648 424 q 618 384 567 374 l 586 368 q 638 348 668 304 q 699 261 699 208 q 699 154 666 103 q 632 52 572 22 q 511 -8 416 -16 l 323 -16 q 227 -8 168 22 q 109 51 74 102 q 40 154 40 207 q 40 260 70 304 q 100 348 153 368 z m 370 165 q 386 165 396 170 q 440 186 440 235 q 440 250 434 265 q 415 307 369 307 q 343 307 321 288 q 299 268 299 236 q 299 206 320 186 q 340 165 370 165 z m 348 442 q 357 438 370 438 q 382 438 395 443 q 408 448 418 464 q 428 479 428 497 q 428 512 422 524 q 415 535 404 543 q 389 555 370 555 q 352 555 335 543 q 311 526 311 502 q 309 482 320 466 q 330 449 348 442 z"},"\\":{"x_min":0,"x_max":328,"ha":328,"o":"m 29 720 l 173 720 l 299 0 l 155 0 z"},"e":{"x_min":0,"x_max":559,"ha":559,"o":"m 563 320 l 283 178 l 288 171 q 304 155 321 155 q 328 155 338 159 q 348 163 357 173 l 359 177 l 362 181 l 518 87 q 488 47 444 20 q 400 -6 347 -16 q 319 -21 295 -21 q 222 -21 160 16 q 28 91 28 241 q 28 264 33 294 q 46 379 105 439 q 164 499 249 515 q 275 519 286 520 q 296 520 302 520 q 329 520 355 514 q 498 483 554 348 z m 323 356 q 303 356 294 353 q 264 344 250 322 q 236 300 236 278 q 236 270 240 256 l 378 326 q 368 339 354 348 q 340 356 323 356 z"},"b":{"x_min":0,"x_max":671,"ha":671,"o":"m 36 0 l 36 610 l 281 747 l 281 460 l 289 467 l 299 474 q 328 496 356 506 q 385 517 418 517 q 514 517 576 450 q 642 379 642 261 q 642 133 580 60 q 518 -14 421 -14 q 403 -14 385 -11 q 340 -4 311 12 q 282 27 266 50 l 266 0 z m 282 246 q 288 198 325 190 q 329 189 338 189 q 361 189 376 205 q 391 221 391 253 q 391 284 379 304 q 367 324 344 329 q 290 337 282 272 l 281 260 z"},"%":{"x_min":0,"x_max":776,"ha":776,"o":"m 29 547 q 29 620 82 673 q 135 726 210 726 q 285 726 338 673 q 364 647 378 614 q 391 582 391 546 q 391 472 338 420 q 285 367 210 367 q 135 367 82 420 q 29 473 29 547 z m 79 0 l 595 720 l 699 720 l 184 0 z m 390 173 q 390 247 442 299 q 494 351 569 351 q 641 351 695 299 q 720 274 734 241 q 747 208 747 173 q 747 136 734 104 q 722 73 695 47 q 641 -5 569 -5 q 495 -5 442 46 q 390 98 390 173 z m 179 480 q 188 462 210 462 q 230 462 244 483 q 259 504 259 546 q 259 588 245 610 q 231 631 210 631 q 189 631 179 613 q 161 583 161 547 q 161 510 179 480 z m 569 86 q 590 86 600 104 q 618 136 618 173 q 618 216 604 238 q 589 260 569 260 q 548 260 537 241 q 519 211 519 173 q 519 130 534 108 q 548 86 569 86 z"},"m":{"x_min":0,"x_max":907,"ha":907,"o":"m 36 0 l 36 394 l 273 529 l 273 445 l 285 460 q 321 502 372 514 q 395 519 414 519 q 490 519 541 450 l 555 427 l 561 436 l 568 445 l 583 463 q 626 506 680 515 q 699 519 720 519 q 782 519 820 482 q 858 445 869 374 l 871 344 l 871 0 l 634 0 l 634 276 l 633 294 q 633 321 609 321 q 605 321 597 319 q 572 312 572 272 l 572 0 l 335 0 l 335 271 l 335 278 l 334 290 q 334 310 323 316 q 312 323 304 323 q 294 323 284 316 q 274 308 274 286 l 274 270 l 274 0 z"},",":{"x_min":0,"x_max":296,"ha":296,"o":"m 22 -124 q 74 -78 112 -17 l 92 -9 q 60 7 42 36 q 23 66 23 101 q 23 154 58 190 q 94 227 144 227 q 195 227 232 190 q 274 148 274 89 q 274 42 245 -15 q 213 -76 152 -143 l 120 -174 z"},"n":{"x_min":0,"x_max":637,"ha":637,"o":"m 36 394 l 266 531 l 266 457 q 290 487 329 504 q 368 520 422 520 q 508 520 554 472 q 601 423 601 335 l 601 0 l 356 0 l 356 264 q 356 312 319 312 q 282 312 282 252 l 283 0 l 38 0 z"},"h":{"x_min":0,"x_max":637,"ha":637,"o":"m 36 0 l 36 607 l 281 743 l 281 462 l 287 469 l 295 476 q 319 497 349 508 q 391 523 430 523 q 505 523 553 473 q 601 423 601 345 l 601 0 l 356 0 l 356 259 q 356 315 312 309 q 281 303 281 258 l 281 0 z"},"z":{"x_min":0,"x_max":589,"ha":589,"o":"m -7 0 l 180 274 q 183 278 195 289 q 215 308 231 320 l 247 332 q 226 322 202 314 q 191 310 178 306 q 165 302 159 302 l 15 302 l 81 504 l 589 504 l 406 231 q 400 222 396 218 q 383 204 358 184 l 344 174 l 360 181 q 389 192 404 196 q 419 201 425 201 l 570 201 l 503 0 z"},"B":{"x_min":0,"x_max":677,"ha":677,"o":"m 36 0 l 36 720 l 391 720 q 499 720 560 668 q 620 617 620 532 q 620 517 619 509 q 609 414 532 380 l 518 374 l 539 370 q 591 353 623 308 q 655 264 655 204 q 655 188 653 178 q 651 169 651 165 q 639 94 585 47 q 531 0 462 0 z m 329 435 q 389 435 395 479 q 397 495 397 502 q 397 559 326 559 l 302 559 l 302 435 z m 337 172 l 348 173 l 362 173 q 408 178 408 238 q 408 295 357 295 l 341 295 l 325 295 l 302 295 l 302 172 z"},"K":{"x_min":0,"x_max":740,"ha":740,"o":"m 36 0 l 36 720 l 302 720 l 302 445 l 459 720 l 769 720 l 522 368 l 754 0 l 447 0 l 302 279 l 302 0 z"},"R":{"x_min":0,"x_max":693,"ha":693,"o":"m 36 0 l 36 720 l 382 720 l 417 719 q 529 719 579 679 q 629 639 645 542 q 649 519 649 493 q 649 421 614 368 q 578 316 518 297 l 722 0 l 411 0 l 302 219 l 302 0 z m 342 395 q 367 395 384 407 q 400 419 404 436 q 408 454 408 466 q 408 529 337 529 l 302 529 l 302 395 z"},"T":{"x_min":0,"x_max":549,"ha":549,"o":"m -11 490 l -3 720 l 578 720 l 511 490 l 392 490 l 392 0 l 126 0 l 126 490 z"},"P":{"x_min":0,"x_max":667,"ha":667,"o":"m 36 0 l 36 720 l 391 720 q 494 720 562 666 q 630 612 650 514 q 657 480 657 445 q 657 338 592 272 q 528 207 427 207 l 302 207 l 302 0 z m 345 391 q 399 391 408 435 q 411 450 411 462 q 411 501 380 514 q 375 516 367 517 q 359 518 340 518 l 302 518 l 302 391 z"},"t":{"x_min":0,"x_max":385,"ha":385,"o":"m -25 317 l 311 738 l 311 504 l 428 504 l 363 317 l 311 317 l 311 0 l 66 0 l 66 317 z"},"M":{"x_min":0,"x_max":925,"ha":925,"o":"m -18 0 l 97 720 l 361 720 l 449 416 q 451 406 455 384 q 459 362 461 342 l 462 317 l 468 373 q 472 405 476 416 l 563 720 l 828 720 l 943 0 l 683 0 l 660 278 q 660 296 660 312 q 659 329 659 345 q 659 355 659 360 l 661 418 l 658 398 l 650 358 l 636 286 l 635 280 l 555 0 l 369 0 l 290 280 l 289 284 l 275 358 l 269 388 l 263 418 l 265 393 q 265 370 265 350 q 265 329 266 311 q 266 300 266 289 q 264 281 264 278 l 242 0 z"},"g":{"x_min":0,"x_max":666,"ha":666,"o":"m 399 454 l 399 504 l 630 504 l 630 62 q 630 -58 528 -126 q 426 -195 230 -195 q 177 -195 131 -182 q 85 -170 36 -146 l 124 11 q 141 -1 159 -8 q 177 -15 205 -21 l 249 -27 q 326 -27 362 -7 q 399 13 399 50 l 399 80 q 377 50 336 32 q 296 13 245 13 q 237 13 229 13 q 217 15 211 15 q 131 25 80 91 q 29 157 29 258 q 29 282 32 308 q 42 389 88 442 q 133 495 203 511 q 214 514 226 515 q 238 516 254 516 q 271 516 288 513 q 357 501 399 454 z m 279 243 q 286 199 321 190 q 325 189 334 189 q 381 189 387 249 l 387 274 q 382 313 353 326 q 344 329 335 329 q 287 329 279 268 l 278 254 z"},"j":{"x_min":0,"x_max":317,"ha":317,"o":"m 36 -180 l 36 394 l 281 529 l 281 -180 z m 38 636 q 38 690 73 730 q 108 770 161 770 q 190 770 214 762 q 238 753 257 734 q 295 697 295 643 q 295 590 258 552 q 222 515 171 515 q 117 515 78 550 q 38 584 38 636 z"},"i":{"x_min":0,"x_max":317,"ha":317,"o":"m 36 0 l 36 390 l 281 527 l 281 0 z m 37 641 q 37 694 75 732 q 113 770 167 770 q 220 770 258 732 q 277 713 286 690 q 295 668 295 642 q 295 617 286 594 q 276 570 257 552 q 219 514 167 514 q 113 514 75 551 q 37 588 37 641 z"},"y":{"x_min":0,"x_max":637,"ha":637,"o":"m -14 504 l 253 504 l 308 311 l 317 267 q 318 257 320 248 q 321 240 321 227 l 326 268 l 335 315 l 388 504 l 659 504 l 363 -180 l 89 -180 l 197 30 z"},".":{"x_min":0,"x_max":294,"ha":294,"o":"m 22 112 q 22 162 58 198 q 95 235 147 235 q 199 235 236 198 q 272 162 272 110 q 272 58 236 22 q 199 -14 147 -14 q 94 -14 58 22 q 22 59 22 112 z"},"p":{"x_min":0,"x_max":670,"ha":670,"o":"m 36 -208 l 36 504 l 266 504 l 266 447 q 302 493 377 509 q 390 512 408 513 q 427 514 428 514 q 509 514 565 459 q 621 404 637 303 q 641 272 642 262 q 642 253 642 242 q 642 167 614 108 q 586 50 538 19 q 480 -19 421 -19 q 348 -19 290 34 l 281 44 l 281 -89 z m 324 171 q 334 169 337 169 q 383 169 391 228 q 392 232 392 235 q 392 240 392 242 q 392 246 390 256 q 382 303 344 311 q 318 316 298 296 q 279 277 279 241 q 279 212 291 194 q 303 176 324 171 z"},"X":{"x_min":0,"x_max":728,"ha":728,"o":"m -36 0 l 216 386 l -6 720 l 279 720 l 344 604 q 351 591 358 564 q 364 536 364 512 q 364 536 369 558 q 374 579 375 582 q 378 592 385 604 l 449 720 l 734 720 l 512 386 l 764 0 l 461 0 l 389 146 q 379 165 369 215 q 367 226 366 237 q 365 248 365 263 l 359 215 q 350 165 340 146 l 268 0 z"},"*":{"x_min":0,"x_max":439,"ha":439,"o":"m 22 478 q 36 505 70 512 q 82 514 86 514 q 93 514 102 512 q 110 509 127 503 l 135 501 q 139 500 142 500 q 145 500 146 500 q 159 500 165 506 q 170 509 170 516 q 170 523 164 528 q 159 533 147 533 q 132 533 102 521 q 94 519 85 519 q 82 519 63 522 q 44 525 29 544 q 14 564 14 590 q 14 628 51 649 q 67 659 87 659 q 125 659 145 626 l 152 611 l 153 608 l 159 584 q 162 574 168 565 q 174 556 183 556 q 190 556 194 563 l 197 568 q 201 584 182 600 l 165 618 q 144 642 144 671 q 144 714 182 728 q 203 735 220 735 q 227 735 237 733 q 247 731 257 728 q 295 714 295 671 q 295 644 274 618 l 257 600 q 238 584 242 568 l 245 563 q 249 556 257 556 q 265 556 270 564 q 276 571 280 584 l 284 598 l 287 611 q 290 624 304 638 q 323 658 353 658 q 390 658 412 627 q 418 618 422 609 q 425 600 425 590 q 425 564 410 544 q 395 525 377 522 q 359 519 353 519 q 347 519 337 521 l 332 523 l 312 530 l 304 532 q 296 533 293 533 q 268 533 268 516 q 268 501 293 501 q 310 501 337 511 q 343 514 354 514 q 357 514 376 511 q 395 508 410 488 q 425 469 425 443 q 425 405 388 384 q 372 374 352 374 q 314 374 294 407 l 287 422 l 280 449 q 277 462 271 470 q 265 477 256 477 q 249 477 245 470 l 242 465 q 238 449 257 433 l 274 415 q 295 391 295 362 q 295 319 257 305 q 240 298 220 298 q 199 298 182 305 q 144 319 144 362 q 144 389 165 415 l 182 433 q 201 449 197 465 l 194 470 q 190 477 182 477 q 174 477 168 470 q 163 462 159 449 l 155 436 l 152 422 q 149 409 135 395 q 125 385 113 380 q 101 375 86 375 q 68 375 51 384 q 34 394 24 411 q 14 428 14 447 q 14 462 22 478 z"},"Y":{"x_min":0,"x_max":686,"ha":686,"o":"m -29 720 l 256 720 l 330 566 l 338 526 l 342 502 l 344 487 l 348 526 q 350 542 352 554 q 355 565 356 566 l 430 720 l 715 720 l 474 309 l 474 0 l 212 0 l 212 309 z"},"c":{"x_min":0,"x_max":500,"ha":500,"o":"m 489 480 l 435 300 l 426 306 q 398 323 380 326 q 362 330 348 330 q 313 330 292 299 q 280 278 280 256 q 280 250 282 240 q 295 183 354 183 q 383 183 417 197 l 429 201 l 435 204 l 485 39 q 466 25 440 14 q 365 -20 294 -20 q 154 -20 74 102 q 29 169 29 252 q 29 278 35 307 q 55 405 130 464 q 206 524 311 524 q 379 524 447 498 q 459 494 468 490 q 476 486 489 480 z"},"!":{"x_min":0,"x_max":347,"ha":347,"o":"m 50 112 q 50 162 86 198 q 123 235 175 235 q 227 235 264 198 q 300 162 300 110 q 300 58 264 22 q 227 -14 175 -14 q 122 -14 86 24 q 50 61 50 112 z m 43 720 l 304 720 l 271 272 l 83 272 z"},"/":{"x_min":0,"x_max":367,"ha":367,"o":"m 22 0 l 201 754 l 345 720 l 168 -34 z"},"[":{"x_min":0,"x_max":362,"ha":362,"o":"m 65 -98 l 65 819 l 319 819 l 319 676 l 265 676 l 265 44 l 319 44 l 319 -98 z"},"6":{"x_min":0,"x_max":740,"ha":740,"o":"m 181 569 l 321 720 l 653 720 l 580 647 l 563 631 l 505 575 l 462 535 l 437 512 l 465 513 q 572 513 642 444 q 713 374 713 272 q 713 261 712 248 q 710 234 709 227 q 692 123 605 56 q 513 -15 380 -15 q 306 -15 247 3 q 145 35 87 111 q 29 187 29 279 q 29 366 81 446 q 99 475 137 518 l 169 555 z m 372 196 q 406 196 430 220 q 454 244 454 277 q 454 310 430 334 q 406 358 371 358 q 336 358 313 334 q 290 310 290 275 q 290 242 314 219 q 338 196 372 196 z"},"r":{"x_min":0,"x_max":472,"ha":472,"o":"m 36 0 l 36 392 l 266 530 l 266 451 l 278 462 q 337 516 419 516 q 430 516 438 516 q 446 516 459 513 q 472 510 482 508 q 491 506 508 499 l 431 267 q 425 273 414 280 q 403 287 392 292 q 380 296 363 296 q 332 296 310 278 q 289 259 285 234 q 281 210 281 182 l 281 0 z"},"2":{"x_min":0,"x_max":740,"ha":740,"o":"m -11 0 l 52 53 q 129 119 180 164 q 231 210 269 246 q 345 319 387 367 q 419 404 429 426 q 436 440 436 456 q 436 478 422 494 q 409 509 387 512 q 327 518 315 439 l 314 430 l 61 430 q 61 457 67 486 q 86 584 152 648 q 219 711 322 728 q 346 732 378 732 q 392 732 402 732 q 412 732 435 728 q 495 719 549 694 q 619 659 656 600 q 693 540 693 471 q 693 419 672 372 q 651 324 607 285 q 589 268 573 257 q 557 246 544 238 l 519 222 l 508 214 l 495 207 l 691 207 l 633 0 z"},"{":{"x_min":0,"x_max":367,"ha":367,"o":"m 29 360 q 58 360 77 380 q 96 400 96 432 l 96 742 q 96 790 122 816 q 148 842 195 842 l 338 842 l 338 756 l 325 756 q 295 756 282 745 q 269 734 269 708 l 269 454 q 269 390 207 366 l 180 360 l 207 354 q 235 343 252 319 q 269 295 269 266 l 269 12 q 269 -36 325 -36 l 338 -36 l 338 -122 l 195 -122 q 148 -122 122 -96 q 96 -70 96 -22 l 96 288 q 96 318 77 339 q 58 360 29 360 z"},"9":{"x_min":0,"x_max":741,"ha":741,"o":"m 557 150 l 423 0 l 88 0 l 161 72 l 190 100 l 234 141 l 271 177 l 303 206 l 275 204 q 168 204 98 272 q 28 340 28 445 q 28 466 31 489 q 46 593 133 661 q 224 732 358 732 q 436 732 493 715 q 595 684 653 608 q 711 531 711 440 q 711 352 657 271 q 649 258 636 242 q 623 225 603 202 z m 366 358 q 402 358 425 382 q 448 405 448 439 q 448 473 424 496 q 399 520 369 520 q 335 520 310 496 q 286 473 286 440 q 286 406 309 382 q 332 358 366 358 z"}," ":{"x_min":0,"x_max":290,"ha":290,"o":""},"I":{"x_min":0,"x_max":338,"ha":338,"o":"m 36 0 l 36 720 l 302 720 l 302 0 z"},"H":{"x_min":0,"x_max":769,"ha":769,"o":"m 36 0 l 36 720 l 302 720 l 302 486 l 466 486 l 466 720 l 733 720 l 733 0 l 466 0 l 466 249 l 302 249 l 302 0 z"},"4":{"x_min":0,"x_max":740,"ha":740,"o":"m 18 145 l 18 335 l 309 720 l 613 720 l 613 332 l 693 332 l 693 145 l 614 145 l 614 0 l 362 0 l 362 145 z m 363 331 l 363 428 l 369 475 l 374 514 l 378 553 l 361 521 l 339 481 l 316 441 l 314 438 l 234 331 z"},"~":{"x_min":0,"x_max":519,"ha":519,"o":"m 29 265 l 30 293 q 38 377 74 420 q 109 463 165 463 q 192 463 229 450 l 314 418 l 334 411 q 343 407 352 407 q 370 407 380 438 l 384 455 l 385 464 l 490 464 l 488 437 q 481 353 446 310 q 411 267 354 267 q 336 267 320 270 q 305 274 289 280 l 205 311 l 184 319 q 172 323 168 323 q 149 323 139 292 q 135 282 135 275 l 134 265 z"},"D":{"x_min":0,"x_max":750,"ha":750,"o":"m 36 0 l 36 720 l 372 720 q 524 720 622 622 q 721 523 721 367 q 721 216 641 120 q 561 23 420 4 q 396 0 367 0 z m 314 229 l 336 231 q 384 238 408 262 q 431 287 438 338 q 439 349 440 357 q 440 365 440 370 q 440 436 402 471 q 369 504 315 504 l 302 504 l 302 229 z"},"^":{"x_min":0,"x_max":525,"ha":525,"o":"m 29 149 l 262 571 l 496 149 l 332 149 l 262 295 l 193 149 z"},"0":{"x_min":0,"x_max":741,"ha":741,"o":"m 29 360 q 29 401 36 437 q 61 575 153 657 q 245 739 370 739 q 496 739 588 658 q 679 576 705 437 q 712 401 712 360 q 712 318 705 283 q 679 144 588 63 q 496 -18 370 -18 q 244 -18 152 63 q 61 144 36 283 q 29 318 29 360 z m 322 233 q 343 212 371 212 q 410 212 432 251 q 443 272 449 297 q 455 322 455 359 q 455 405 446 436 q 436 468 418 486 q 397 507 370 507 q 331 507 308 467 q 285 427 285 359 q 285 313 294 282 q 304 251 322 233 z"},"F":{"x_min":0,"x_max":563,"ha":563,"o":"m 36 0 l 36 720 l 577 720 l 523 518 l 302 518 l 302 458 l 531 458 l 479 262 l 302 262 l 302 0 z"},"`":{"x_min":0,"x_max":198,"ha":198,"o":"m -35 709 l 91 777 l 198 601 l 103 550 z"},"k":{"x_min":0,"x_max":642,"ha":642,"o":"m 36 0 l 36 608 l 281 743 l 281 334 l 370 504 l 657 504 l 485 269 l 685 0 l 379 0 l 281 173 l 281 0 z"},"u":{"x_min":0,"x_max":631,"ha":631,"o":"m 36 187 l 36 504 l 281 504 l 281 237 l 281 222 l 282 216 l 283 210 q 293 181 324 188 q 338 191 344 202 q 351 214 351 237 l 351 504 l 595 504 l 595 187 q 595 105 536 51 q 476 -3 365 -15 q 339 -18 315 -18 q 291 -18 265 -15 q 154 -2 95 52 q 36 105 36 187 z"},"]":{"x_min":0,"x_max":360,"ha":360,"o":"m 43 -98 l 43 44 l 97 44 l 97 676 l 43 676 l 43 819 l 295 819 l 295 -98 z"},"U":{"x_min":0,"x_max":738,"ha":738,"o":"m 36 275 l 36 720 l 302 720 l 302 297 q 302 226 356 215 q 364 213 369 213 q 374 213 382 215 q 411 221 424 240 q 436 258 436 297 l 436 720 l 702 720 l 702 275 q 702 154 632 81 q 562 8 426 -11 q 414 -13 399 -14 q 384 -15 369 -15 q 351 -15 334 -15 q 319 -12 312 -11 q 176 8 106 81 q 36 154 36 275 z"},"o":{"x_min":0,"x_max":615,"ha":615,"o":"m 29 250 q 29 363 110 444 q 192 524 308 524 q 365 524 416 502 q 496 469 541 399 q 586 329 586 248 q 586 196 566 147 q 547 98 507 58 q 425 -24 308 -24 q 191 -24 110 56 q 29 136 29 250 z m 273 197 q 287 182 308 182 q 329 182 344 200 q 360 217 360 250 q 360 282 344 300 q 329 318 308 318 q 287 318 273 302 q 255 282 255 250 q 255 217 273 197 z"},"N":{"x_min":0,"x_max":797,"ha":797,"o":"m 36 0 l 36 720 l 297 720 l 468 435 q 477 419 488 394 q 496 374 509 341 l 534 271 l 525 304 q 517 339 512 374 q 507 408 507 436 l 502 720 l 761 720 l 761 0 l 496 0 l 330 268 q 317 290 305 319 q 297 340 285 374 l 271 418 l 268 429 l 273 403 q 289 332 289 271 l 295 0 z"},"G":{"x_min":0,"x_max":851,"ha":851,"o":"m 775 544 l 537 453 q 519 482 490 496 q 461 509 432 509 q 384 509 347 475 q 310 441 302 383 q 301 369 301 361 q 301 353 301 349 q 301 283 339 241 q 374 202 430 197 q 453 197 468 200 q 482 202 494 209 q 528 230 536 264 l 423 264 l 424 423 l 817 423 q 819 414 820 396 q 822 377 822 357 q 822 318 813 277 q 787 165 710 91 q 634 17 516 -8 q 498 -12 474 -14 q 451 -16 428 -16 q 391 -16 355 -10 q 206 14 117 116 q 28 217 28 353 q 28 377 31 402 q 34 426 41 453 q 74 578 180 656 q 285 735 425 735 q 460 735 496 729 q 590 714 662 666 q 733 619 775 544 z"},"q":{"x_min":0,"x_max":670,"ha":670,"o":"m 404 451 l 404 504 l 634 504 l 634 -88 l 389 -207 l 389 44 q 338 -16 247 -16 q 234 -16 221 -16 q 209 -13 204 -12 q 135 2 92 52 q 49 102 34 187 q 30 217 30 230 q 29 243 29 250 q 29 265 29 280 q 32 293 33 299 q 48 399 110 458 q 171 516 252 516 q 292 516 334 498 q 375 481 404 451 z m 288 202 q 303 170 332 170 q 337 170 347 172 q 384 181 390 229 l 390 243 q 390 276 375 294 q 360 312 337 312 q 329 312 320 309 q 280 297 280 238 q 280 218 288 202 z"},"d":{"x_min":0,"x_max":671,"ha":671,"o":"m 390 457 l 390 609 l 635 746 l 635 0 l 404 0 l 404 52 q 389 30 361 14 q 333 -2 289 -11 q 262 -16 243 -16 q 163 -16 106 40 q 49 95 34 195 q 30 227 30 240 q 29 252 29 259 q 29 311 43 358 q 66 433 122 475 q 178 517 246 517 q 310 517 364 478 z m 326 189 q 353 184 372 202 q 390 221 390 260 q 390 293 374 312 q 359 330 333 330 q 310 330 294 310 q 279 291 279 257 q 279 197 326 189 z"},"1":{"x_min":0,"x_max":740,"ha":740,"o":"m 175 504 l 250 720 l 529 720 l 529 0 l 276 0 l 276 504 z"},"5":{"x_min":0,"x_max":739,"ha":739,"o":"m 60 44 l 89 252 l 131 233 q 182 212 233 201 q 284 190 319 190 q 345 190 363 195 q 420 209 420 248 q 420 254 416 268 q 409 287 385 300 q 361 312 313 317 q 304 318 284 318 q 220 318 137 297 l 93 285 l 152 720 l 648 720 l 588 515 l 333 515 l 323 450 q 367 465 423 465 q 433 465 442 465 q 452 465 465 463 q 531 456 585 423 q 630 395 656 348 q 681 302 681 248 q 681 195 658 146 q 634 98 586 60 q 539 23 478 4 q 417 -16 345 -16 q 229 -16 88 34 z"}}}
